<?xml version="1.0" standalone="no"?>
<!DOCTYPE svg PUBLIC "-//W3C//DTD SVG 20010904//EN"
 "http://www.w3.org/TR/2001/REC-SVG-20010904/DTD/svg10.dtd">
<svg version="1.0" xmlns="http://www.w3.org/2000/svg"
 width="467.000000pt" height="524.000000pt" viewBox="0 0 467.000000 524.000000"
 preserveAspectRatio="xMidYMid meet">

<g transform="translate(0.000000,524.000000) scale(0.100000,-0.100000)"
fill="#000000" stroke="none">

<path d="M2155 4449 c-94 -21 -194 -73 -603 -318 -84 -50 -154 -91 -156 -91
-1 0 -63 -37 -137 -82 -74 -44 -181 -109 -239 -143 -58 -33 -128 -76 -155 -95
-109 -75 -187 -182 -243 -331 l-27 -74 -3 -715 c-3 -813 -5 -795 76 -954 62
-120 140 -199 287 -288 61 -37 137 -83 170 -103 33 -20 123 -74 200 -119 77
-45 250 -148 385 -227 357 -211 388 -224 555 -235 170 -11 273 23 528 178 100
61 205 123 232 138 28 15 66 38 87 51 20 13 87 55 150 92 429 258 496 301 541
349 91 95 156 215 182 336 13 62 15 180 15 757 0 766 0 766 -70 911 -50 103
-161 218 -276 285 -115 68 -431 254 -649 384 -427 253 -446 263 -550 290 -65
16 -233 19 -300 4z m260 -217 c28 -10 106 -51 175 -92 69 -41 154 -90 190
-111 36 -20 137 -79 225 -132 88 -52 239 -141 335 -198 248 -145 303 -182 342
-231 87 -107 95 -151 99 -518 1 -162 1 -334 1 -382 l-2 -86 -53 -30 c-30 -17
-71 -35 -93 -41 -21 -6 -62 -26 -91 -46 -29 -19 -54 -35 -56 -35 -1 0 -4 51
-5 113 l-2 112 75 44 75 44 0 73 c0 41 -4 74 -9 74 -11 0 -95 -49 -289 -168
-73 -45 -134 -82 -137 -82 -3 0 -5 40 -5 88 l0 89 -107 64 -108 64 -5 50 c-10
92 -62 138 -152 134 -44 -2 -62 3 -98 26 -80 52 -83 55 -57 75 55 43 103 59
156 53 43 -5 56 -2 86 18 42 29 69 89 60 135 -7 38 -60 89 -103 99 -19 4 -44
0 -68 -10 -31 -13 -43 -14 -61 -4 -21 12 -23 19 -23 105 l0 92 35 6 c46 9 100
61 115 113 32 107 -44 203 -162 203 -141 0 -207 -180 -103 -281 33 -32 35 -38
35 -101 0 -70 -5 -77 -40 -58 -15 8 -22 4 -39 -26 -12 -20 -21 -37 -19 -39 2
-1 40 -23 85 -50 78 -46 81 -49 85 -89 5 -46 4 -47 -84 -98 -32 -18 -91 -54
-130 -80 -76 -49 -103 -57 -131 -35 -15 11 -17 29 -15 151 l3 139 30 10 c128
41 156 237 46 330 -53 44 -153 53 -216 19 -49 -26 -105 -111 -105 -159 0 -11
-24 -33 -58 -55 l-57 -36 -3 75 c-3 70 -1 76 27 108 56 65 63 132 20 202 -31
50 -74 73 -135 73 -66 0 -111 -29 -143 -93 -19 -38 -22 -56 -17 -92 11 -68 77
-135 136 -135 19 0 20 -6 20 -100 0 -86 -2 -101 -18 -109 -14 -7 -30 -5 -60
10 -124 62 -239 -103 -140 -201 35 -35 65 -45 115 -37 36 6 85 -12 146 -55
l28 -20 -68 -42 c-60 -37 -74 -41 -118 -39 -86 6 -149 -50 -147 -131 0 -50 -2
-52 -135 -130 l-83 -49 0 -88 c0 -49 -3 -89 -6 -89 -6 0 -303 176 -381 227
l-53 33 0 -82 0 -83 71 -38 c39 -22 72 -44 75 -50 2 -7 1 -58 -3 -114 l-8
-101 -67 40 c-37 22 -71 38 -75 35 -5 -3 -6 -31 -3 -63 l5 -58 150 -89 c83
-49 249 -148 370 -220 121 -71 240 -143 265 -158 46 -27 208 -124 428 -255
l123 -73 87 51 c48 28 116 67 152 87 36 20 97 57 135 82 39 25 115 72 170 104
55 32 150 89 210 126 61 37 145 86 187 110 201 113 388 232 388 245 0 8 4 13
9 10 5 -3 37 10 71 29 34 19 64 35 66 35 2 0 4 -58 4 -128 0 -88 -4 -133 -12
-144 -7 -8 -34 -27 -61 -42 -41 -24 -46 -29 -37 -46 12 -23 32 -27 24 -5 -4 9
0 15 10 15 9 0 16 -4 16 -10 0 -5 7 -10 15 -10 21 0 35 -33 35 -82 l0 -44 -99
-62 c-55 -34 -103 -62 -107 -62 -18 0 -44 -35 -44 -60 0 -22 -11 -32 -77 -70
-43 -24 -219 -128 -392 -232 -172 -103 -315 -188 -318 -188 -2 0 -28 -15 -56
-34 -129 -85 -287 -176 -304 -176 -42 0 -58 54 -25 82 20 17 146 94 217 133
28 15 68 40 90 54 36 24 176 108 265 159 19 11 106 62 192 113 87 52 200 118
250 148 54 32 101 67 113 85 12 19 46 43 88 63 l67 33 0 86 0 86 -25 -16 c-80
-51 -69 -50 -102 -13 -16 18 -34 37 -41 40 -6 4 -68 -27 -138 -68 -70 -42
-141 -83 -158 -92 -27 -13 -337 -195 -471 -276 -91 -55 -269 -159 -325 -189
-81 -44 -80 -43 -80 -119 0 -38 -2 -69 -5 -69 -3 0 -29 15 -58 34 -64 41 -190
116 -277 166 -119 67 -170 102 -170 115 0 8 18 29 40 46 l40 32 -34 21 c-281
168 -269 165 -324 102 l-29 -34 -84 54 c-46 29 -84 59 -84 66 0 6 19 26 41 44
l42 31 -92 55 c-133 81 -132 81 -150 62 -9 -9 -16 -32 -16 -55 0 -21 -4 -39
-9 -39 -5 0 -40 18 -79 40 -38 22 -73 40 -78 40 -13 0 -5 -147 10 -159 6 -5
36 -18 66 -28 45 -15 58 -25 80 -62 21 -37 40 -52 120 -93 52 -28 101 -55 108
-60 19 -16 14 -45 -9 -62 -12 -8 -19 -21 -16 -28 2 -7 40 -34 83 -59 44 -26
158 -93 254 -150 96 -57 184 -109 195 -114 58 -32 122 -70 138 -83 33 -29 16
-82 -28 -82 -16 0 -181 92 -380 213 -164 100 -246 148 -318 188 l-82 45 -3 60
c-4 66 -15 83 -72 109 -33 15 -40 23 -40 46 0 18 -8 34 -22 44 -41 29 -210
134 -222 138 -8 3 -11 188 -11 713 l0 709 27 59 c56 118 108 171 233 241 28
15 124 71 215 125 91 53 233 137 315 185 83 48 161 95 175 105 14 9 46 28 70
40 25 13 85 47 134 77 100 61 179 102 216 114 46 14 163 9 215 -9z m-264 -798
c13 -15 43 -35 67 -46 l42 -19 0 -142 0 -142 -50 -27 c-117 -65 -127 -234 -17
-306 55 -37 154 -38 209 -4 64 40 97 150 68 226 -8 22 -5 27 35 50 24 14 48
26 54 26 6 0 40 -19 74 -41 l63 -41 0 -70 c-1 -68 0 -70 36 -103 43 -40 95
-53 147 -35 37 12 40 11 127 -41 l89 -54 0 -94 0 -95 -75 -44 c-41 -25 -109
-66 -150 -92 -41 -26 -80 -49 -86 -51 -6 -2 -81 -47 -167 -99 -87 -52 -194
-116 -239 -142 l-81 -46 -51 32 c-81 52 -423 256 -428 256 -3 0 -74 42 -159
93 l-154 93 -2 92 -3 91 43 29 c23 15 64 41 91 56 44 26 51 27 90 16 85 -24
167 25 182 107 4 20 2 49 -3 64 -12 32 -9 36 75 89 52 32 55 33 81 17 26 -15
28 -15 54 18 15 19 27 38 27 42 0 4 -55 41 -123 80 l-123 73 4 39 c3 33 10 44
43 65 21 14 41 26 43 26 3 0 31 18 63 39 32 22 63 40 69 40 6 1 21 -11 35 -25z
m-818 -1007 c66 -39 67 -40 67 -82 0 -42 -2 -45 -56 -79 -53 -33 -59 -34 -84
-21 -34 18 -46 34 -44 65 0 14 1 60 2 103 2 89 -10 88 115 14z m2047 19 c0
-43 0 -44 -67 -83 -122 -72 -113 -71 -113 -15 l0 49 58 31 c31 17 66 38 77 46
34 26 45 20 45 -28z m-280 -171 c0 -30 -5 -37 -37 -54 -21 -10 -67 -37 -103
-60 -136 -85 -289 -171 -305 -171 -6 0 -20 9 -29 19 -17 19 -16 20 21 44 29
18 305 183 413 247 29 17 40 11 40 -25z m-1546 10 c22 -17 30 -45 14 -45 -26
0 34 -45 141 -107 64 -36 170 -101 236 -143 66 -43 146 -92 178 -110 66 -37
65 -38 -14 -84 l-45 -26 -72 45 c-40 25 -75 45 -77 45 -3 0 -83 46 -178 103
-95 56 -211 125 -259 152 -49 28 -88 53 -88 57 0 3 24 20 54 37 55 32 78 52
75 67 -5 28 7 30 35 9z"/>
<path d="M2200 4114 c-72 -65 -75 -157 -7 -222 57 -55 124 -63 193 -21 67 40
87 160 38 219 -37 43 -74 60 -133 60 -44 0 -56 -5 -91 -36z m157 -56 c50 -54
15 -138 -58 -138 -71 0 -108 92 -57 140 30 28 88 27 115 -2z"/>
<path d="M1589 3762 c-13 -10 -69 -44 -124 -77 -55 -32 -103 -63 -107 -69 -4
-6 -8 -65 -8 -131 l0 -120 -105 -60 c-58 -33 -143 -82 -190 -109 l-85 -48 0
-119 c0 -103 2 -119 18 -127 19 -10 43 -5 54 12 4 6 8 47 8 91 l0 81 63 40
c34 22 102 62 151 88 49 26 106 59 128 73 l38 26 0 127 0 127 38 19 c33 17
170 100 181 110 7 6 -19 84 -28 84 -5 0 -19 -8 -32 -18z"/>
<path d="M2953 3738 c-6 -24 -11 -44 -9 -45 1 -1 51 -31 111 -66 l110 -63 3
-130 3 -129 72 -40 c39 -22 97 -54 127 -71 30 -17 81 -47 113 -68 l57 -37 0
-84 c0 -63 4 -87 16 -99 20 -21 30 -20 54 4 17 17 20 33 20 125 0 71 -4 108
-12 115 -7 6 -60 38 -118 72 -58 33 -136 79 -175 102 l-70 42 -3 119 c-1 65
-7 124 -12 131 -10 11 -262 164 -271 164 -3 0 -10 -19 -16 -42z"/>
<path d="M1151 3508 c-37 -20 -48 -64 -24 -97 38 -50 114 -32 128 30 12 50
-54 93 -104 67z"/>
<path d="M3380 3513 c-41 -15 -55 -87 -22 -116 42 -38 122 -4 122 52 0 44 -55
80 -100 64z"/>
<path d="M976 3374 c-22 -21 -20 -67 2 -87 40 -37 102 -9 102 46 0 34 -24 57
-60 57 -16 0 -36 -7 -44 -16z"/>
<path d="M3526 3368 c-9 -12 -16 -29 -16 -38 0 -29 30 -60 59 -60 52 0 82 68
45 104 -23 24 -70 20 -88 -6z"/>
<path d="M2496 3294 c-9 -8 -16 -22 -16 -29 0 -17 27 -45 43 -45 24 0 40 18
40 45 0 42 -38 59 -67 29z"/>
<path d="M1530 3196 c-19 -12 -62 -39 -94 -58 -58 -35 -61 -35 -92 -21 -72 35
-154 -18 -154 -99 0 -57 51 -108 108 -108 49 0 102 43 102 83 0 20 11 32 58
57 31 18 81 48 109 66 l52 33 -22 35 c-12 19 -24 35 -27 35 -3 0 -21 -10 -40
-23z"/>
<path d="M3010 3195 c-7 -14 -17 -25 -22 -25 -25 0 -1 -29 45 -54 113 -63 164
-104 170 -135 4 -20 18 -38 39 -51 48 -29 91 -26 133 11 30 27 35 37 35 74 0
84 -81 137 -154 102 -36 -17 -26 -21 -160 65 -33 21 -63 38 -66 38 -4 0 -13
-11 -20 -25z"/>
<path d="M1476 2946 c-10 -39 -57 -87 -104 -108 -54 -24 -116 -18 -179 17
l-43 24 0 -39 c0 -41 -10 -33 158 -127 l42 -24 0 40 c0 39 1 40 81 83 89 47
119 78 99 103 -6 8 -9 19 -6 24 4 6 -2 15 -13 20 -27 15 -28 14 -35 -13z"/>
<path d="M3430 2875 c-19 -23 -65 -45 -95 -45 -17 0 -28 -7 -34 -22 -5 -13
-19 -33 -31 -46 -12 -12 -20 -31 -18 -42 3 -19 6 -18 58 9 135 69 138 72 142
107 5 44 -4 60 -22 39z"/>
<path d="M820 2439 c0 -5 5 -7 10 -4 6 3 10 8 10 11 0 2 -4 4 -10 4 -5 0 -10
-5 -10 -11z"/>
<path d="M840 2420 c0 -5 5 -10 10 -10 6 0 10 5 10 10 0 6 -4 10 -10 10 -5 0
-10 -4 -10 -10z"/>
<path d="M899 2413 c-13 -16 -12 -17 4 -4 9 7 17 15 17 17 0 8 -8 3 -21 -13z"/>
<path d="M920 2400 c-9 -6 -10 -10 -3 -10 6 0 15 5 18 10 8 12 4 12 -15 0z"/>
<path d="M825 2390 c-3 -5 -1 -10 4 -10 6 0 11 5 11 10 0 6 -2 10 -4 10 -3 0
-8 -4 -11 -10z"/>
<path d="M885 2370 c-3 -6 1 -7 9 -4 18 7 21 14 7 14 -6 0 -13 -4 -16 -10z"/>
<path d="M925 2320 c3 -5 8 -10 11 -10 2 0 4 5 4 10 0 6 -5 10 -11 10 -5 0 -7
-4 -4 -10z"/>
<path d="M3640 2001 c0 -6 4 -12 8 -15 5 -3 9 1 9 9 0 8 -4 15 -9 15 -4 0 -8
-4 -8 -9z"/>
<path d="M2042 3298 c-7 -7 -12 -21 -12 -33 0 -48 49 -60 76 -20 16 24 16 27
-1 45 -20 23 -45 26 -63 8z"/>
<path d="M1962 2713 c-11 -21 1 -58 21 -66 20 -7 57 20 57 42 0 39 -61 58 -78
24z"/>
<path d="M2567 2724 c-15 -15 -7 -63 13 -74 33 -17 62 4 58 43 -3 27 -7 32
-33 35 -17 2 -34 0 -38 -4z"/>
<path d="M1828 2604 c-13 -7 -48 -28 -76 -47 l-53 -34 73 -45 c103 -63 260
-157 348 -208 41 -24 96 -56 121 -72 25 -15 52 -28 59 -28 7 0 61 28 119 63
58 35 188 112 289 172 100 59 182 112 182 117 0 9 -36 33 -106 70 l-42 22 -98
-59 c-55 -33 -154 -92 -222 -133 l-122 -74 -223 135 c-210 126 -225 133 -249
121z m57 -109 c0 -22 -31 -33 -47 -17 -17 17 -1 44 24 40 15 -2 23 -10 23 -23z
m882 9 c3 -8 -2 -23 -11 -32 -15 -15 -17 -15 -32 0 -21 21 -11 48 16 48 11 0
23 -7 27 -16z m-752 -84 c8 -24 -1 -40 -21 -40 -17 0 -28 24 -20 45 8 22 34
18 41 -5z m614 6 c15 -18 3 -46 -20 -46 -22 0 -34 22 -25 45 7 19 30 19 45 1z
m-449 -111 c15 -18 5 -35 -20 -35 -22 0 -34 15 -26 35 7 19 30 19 46 0z m288
-8 c4 -20 -25 -34 -40 -19 -15 15 -1 44 19 40 10 -2 19 -11 21 -21z"/>
<path d="M2255 2594 c-24 -24 -15 -66 18 -84 24 -13 30 -13 54 0 34 19 40 43
19 75 -19 29 -66 34 -91 9z"/>
</g>
</svg>
